<mxfile host="app.diagrams.net" modified="2024-01-15T12:48:02.184Z" agent="Mozilla/5.0 (Macintosh; Intel Mac OS X 10_15_7) AppleWebKit/537.36 (KHTML, like Gecko) Chrome/120.0.0.0 Safari/537.36" etag="jwgV5iZ87CCAX-DVecFQ" version="22.1.18" type="github">
  <diagram id="R2lEEEUBdFMjLlhIrx00" name="Page-1">
    <mxGraphModel dx="1434" dy="832" grid="1" gridSize="10" guides="1" tooltips="1" connect="1" arrows="1" fold="1" page="1" pageScale="1" pageWidth="850" pageHeight="1100" math="0" shadow="0" extFonts="Permanent Marker^https://fonts.googleapis.com/css?family=Permanent+Marker">
      <root>
        <mxCell id="0" />
        <mxCell id="1" parent="0" />
        <mxCell id="SRN0sGf6vosETCDUx237-2" value="" style="whiteSpace=wrap;html=1;aspect=fixed;fillColor=none;" vertex="1" parent="1">
          <mxGeometry x="250" y="60" width="650" height="650" as="geometry" />
        </mxCell>
        <mxCell id="SRN0sGf6vosETCDUx237-1" value="User&lt;br&gt;" style="shape=umlActor;verticalLabelPosition=bottom;verticalAlign=top;html=1;outlineConnect=0;" vertex="1" parent="1">
          <mxGeometry x="90" y="320" width="30" height="60" as="geometry" />
        </mxCell>
        <mxCell id="SRN0sGf6vosETCDUx237-3" value="Book Tickets" style="ellipse;whiteSpace=wrap;html=1;" vertex="1" parent="1">
          <mxGeometry x="410" y="160" width="120" height="80" as="geometry" />
        </mxCell>
        <mxCell id="SRN0sGf6vosETCDUx237-4" value="Search for movies" style="ellipse;whiteSpace=wrap;html=1;" vertex="1" parent="1">
          <mxGeometry x="410" y="270" width="120" height="80" as="geometry" />
        </mxCell>
        <mxCell id="SRN0sGf6vosETCDUx237-5" value="Select seats" style="ellipse;whiteSpace=wrap;html=1;" vertex="1" parent="1">
          <mxGeometry x="410" y="380" width="120" height="80" as="geometry" />
        </mxCell>
        <mxCell id="SRN0sGf6vosETCDUx237-6" value="Check show timings&lt;br&gt;" style="ellipse;whiteSpace=wrap;html=1;" vertex="1" parent="1">
          <mxGeometry x="410" y="480" width="120" height="80" as="geometry" />
        </mxCell>
        <mxCell id="SRN0sGf6vosETCDUx237-7" value="System&lt;br&gt;" style="shape=umlActor;verticalLabelPosition=bottom;verticalAlign=top;html=1;outlineConnect=0;" vertex="1" parent="1">
          <mxGeometry x="990" y="340" width="30" height="60" as="geometry" />
        </mxCell>
        <mxCell id="SRN0sGf6vosETCDUx237-10" value="Check theatres" style="ellipse;whiteSpace=wrap;html=1;" vertex="1" parent="1">
          <mxGeometry x="410" y="610" width="120" height="80" as="geometry" />
        </mxCell>
        <mxCell id="SRN0sGf6vosETCDUx237-11" value="" style="endArrow=none;html=1;rounded=0;exitX=0.5;exitY=0.5;exitDx=0;exitDy=0;exitPerimeter=0;entryX=0.025;entryY=0.388;entryDx=0;entryDy=0;entryPerimeter=0;" edge="1" parent="1" source="SRN0sGf6vosETCDUx237-1" target="SRN0sGf6vosETCDUx237-5">
          <mxGeometry width="50" height="50" relative="1" as="geometry">
            <mxPoint x="480" y="440" as="sourcePoint" />
            <mxPoint x="530" y="390" as="targetPoint" />
          </mxGeometry>
        </mxCell>
        <mxCell id="SRN0sGf6vosETCDUx237-15" value="" style="endArrow=none;html=1;rounded=0;entryX=0;entryY=0.5;entryDx=0;entryDy=0;" edge="1" parent="1" source="SRN0sGf6vosETCDUx237-1" target="SRN0sGf6vosETCDUx237-4">
          <mxGeometry width="50" height="50" relative="1" as="geometry">
            <mxPoint x="180" y="350" as="sourcePoint" />
            <mxPoint x="240" y="310" as="targetPoint" />
            <Array as="points" />
          </mxGeometry>
        </mxCell>
        <mxCell id="SRN0sGf6vosETCDUx237-16" value="" style="endArrow=none;html=1;rounded=0;entryX=0;entryY=0.5;entryDx=0;entryDy=0;" edge="1" parent="1" source="SRN0sGf6vosETCDUx237-1" target="SRN0sGf6vosETCDUx237-6">
          <mxGeometry width="50" height="50" relative="1" as="geometry">
            <mxPoint x="180" y="350.00205717202647" as="sourcePoint" />
            <mxPoint x="400.0799999999999" y="508.93" as="targetPoint" />
          </mxGeometry>
        </mxCell>
        <mxCell id="SRN0sGf6vosETCDUx237-17" value="" style="endArrow=none;html=1;rounded=0;entryX=0;entryY=0.638;entryDx=0;entryDy=0;entryPerimeter=0;" edge="1" parent="1" source="SRN0sGf6vosETCDUx237-1" target="SRN0sGf6vosETCDUx237-3">
          <mxGeometry width="50" height="50" relative="1" as="geometry">
            <mxPoint x="180" y="350" as="sourcePoint" />
            <mxPoint x="250" y="250" as="targetPoint" />
          </mxGeometry>
        </mxCell>
        <mxCell id="SRN0sGf6vosETCDUx237-18" value="" style="endArrow=none;html=1;rounded=0;exitX=0.5;exitY=0.5;exitDx=0;exitDy=0;exitPerimeter=0;entryX=0;entryY=0.5;entryDx=0;entryDy=0;" edge="1" parent="1" source="SRN0sGf6vosETCDUx237-1" target="SRN0sGf6vosETCDUx237-10">
          <mxGeometry width="50" height="50" relative="1" as="geometry">
            <mxPoint x="330" y="610" as="sourcePoint" />
            <mxPoint x="230" y="520" as="targetPoint" />
          </mxGeometry>
        </mxCell>
        <mxCell id="SRN0sGf6vosETCDUx237-19" value="Add Shows" style="ellipse;whiteSpace=wrap;html=1;" vertex="1" parent="1">
          <mxGeometry x="650" y="220" width="120" height="80" as="geometry" />
        </mxCell>
        <mxCell id="SRN0sGf6vosETCDUx237-20" value="Add Movies" style="ellipse;whiteSpace=wrap;html=1;" vertex="1" parent="1">
          <mxGeometry x="650" y="480" width="120" height="80" as="geometry" />
        </mxCell>
        <mxCell id="SRN0sGf6vosETCDUx237-21" value="" style="endArrow=none;html=1;rounded=0;exitX=0.975;exitY=0.6;exitDx=0;exitDy=0;exitPerimeter=0;entryX=0.5;entryY=0.5;entryDx=0;entryDy=0;entryPerimeter=0;" edge="1" parent="1" source="SRN0sGf6vosETCDUx237-19" target="SRN0sGf6vosETCDUx237-7">
          <mxGeometry width="50" height="50" relative="1" as="geometry">
            <mxPoint x="870" y="410" as="sourcePoint" />
            <mxPoint x="970" y="360" as="targetPoint" />
          </mxGeometry>
        </mxCell>
        <mxCell id="SRN0sGf6vosETCDUx237-23" value="" style="endArrow=none;html=1;rounded=0;exitX=1;exitY=0.5;exitDx=0;exitDy=0;entryX=0.5;entryY=0.5;entryDx=0;entryDy=0;entryPerimeter=0;" edge="1" parent="1" source="SRN0sGf6vosETCDUx237-20" target="SRN0sGf6vosETCDUx237-7">
          <mxGeometry width="50" height="50" relative="1" as="geometry">
            <mxPoint x="870" y="420" as="sourcePoint" />
            <mxPoint x="920" y="370" as="targetPoint" />
          </mxGeometry>
        </mxCell>
        <mxCell id="SRN0sGf6vosETCDUx237-24" value="Cancel Tickets" style="ellipse;whiteSpace=wrap;html=1;" vertex="1" parent="1">
          <mxGeometry x="410" y="70" width="120" height="80" as="geometry" />
        </mxCell>
        <mxCell id="SRN0sGf6vosETCDUx237-25" value="" style="endArrow=none;html=1;rounded=0;entryX=0;entryY=0.588;entryDx=0;entryDy=0;entryPerimeter=0;exitX=0.5;exitY=0.267;exitDx=0;exitDy=0;exitPerimeter=0;" edge="1" parent="1" source="SRN0sGf6vosETCDUx237-1" target="SRN0sGf6vosETCDUx237-24">
          <mxGeometry width="50" height="50" relative="1" as="geometry">
            <mxPoint x="180" y="330" as="sourcePoint" />
            <mxPoint x="230" y="280" as="targetPoint" />
          </mxGeometry>
        </mxCell>
      </root>
    </mxGraphModel>
  </diagram>
</mxfile>
